<svg 
 xmlns="http://www.w3.org/2000/svg"
 xmlns:xlink="http://www.w3.org/1999/xlink"
 width="32px" height="22px">
<path fill-rule="evenodd"  fill="rgb(0, 142, 214)"
 d="M32.000,18.515 C32.000,20.172 31.157,22.015 29.500,22.015 L3.500,22.015 C1.843,22.015 -0.000,20.172 -0.000,18.515 L-0.000,2.515 C-0.000,2.435 0.023,2.365 0.032,2.289 C-0.022,2.000 0.037,1.693 0.244,1.454 C0.281,1.411 0.331,1.389 0.373,1.354 C0.992,0.469 2.292,0.015 3.500,0.015 L29.500,0.015 C30.869,0.015 31.673,0.600 31.914,1.734 C31.981,1.898 32.004,2.068 31.981,2.240 C31.987,2.332 32.000,2.417 32.000,2.515 L32.000,18.515 ZM3.500,20.015 L29.500,20.015 C30.052,20.015 30.000,19.067 30.000,18.515 L30.000,4.188 L16.655,14.865 C16.467,15.027 16.233,15.109 16.000,15.109 C15.767,15.109 15.533,15.027 15.345,14.865 L2.000,4.188 L2.000,18.515 C2.000,19.067 2.949,20.015 3.500,20.015 ZM29.000,2.015 L3.500,2.015 C3.223,2.015 2.848,2.002 2.541,2.059 L16.000,12.785 L29.514,2.015 C29.508,2.015 29.506,2.015 29.500,2.015 L29.000,2.015 Z"/>
</svg>