<?xml version="1.0" encoding="utf-8"?>
<!-- Generator: Adobe Illustrator 21.0.0, SVG Export Plug-In . SVG Version: 6.00 Build 0)  -->
<svg version="1.1" id="Layer_1" xmlns="http://www.w3.org/2000/svg" xmlns:xlink="http://www.w3.org/1999/xlink" x="0px" y="0px"
	 viewBox="0 0 36 36" style="enable-background:new 0 0 36 36;" xml:space="preserve">
<style type="text/css">
	.st0{fill:#008ED6;}
</style>
<path class="st0" d="M21,34c-9.1,0-9.2-0.4-10.3-1.2c-0.6-0.5-1.7-0.8-5.8-1c-0.3,0-0.6-0.1-0.8-0.4C4,31.3,2,28.3,2,23.5
	c0-4.7,1.5-6.9,1.5-7C3.7,16.2,4,16,4.4,16c3.4,0,8.1-4.3,11.2-11.8C16.1,2.9,16.2,2,18.2,2c1.1,0,2.4,0.8,3,1.9
	c1.3,2.1,0.6,6.7,0,9.2c2.1,0,5.8,0,7.6,0c2.5,0,4.1,1.5,4.2,3.6c0,0.7-0.1,1.6-0.3,2.1c0.5,0.5,1.2,1.4,1.3,2.4
	c0,1.4-0.9,2.4-1.4,3c0.1,0.4,0.4,0.9,0.4,1.5c-0.1,1.5-1.3,2.5-2,3.1c0.1,0.4,0.1,1.2,0,1.8C30.4,33,26.8,34,21,34z M5.4,29.7
	c3.6,0.3,5.5,0.7,6.5,1.5c0.8,0.6,0.7,0.8,9.1,0.8c2.6,0,7.6-0.1,8-1.9c0.2-0.7-0.6-1.4-0.6-1.4c-0.2-0.5,0-1.1,0.5-1.3
	c0,0,2-0.7,2-1.8c0-0.7-0.5-1.1-0.5-1.2c-0.3-0.5-0.2-1.1,0.3-1.4c0,0,1.3-0.8,1.3-1.9c0-0.8-1.1-1.4-1.2-1.5
	c-0.3-0.1-0.4-0.4-0.5-0.7c-0.1-0.3,0-0.6,0.2-0.8c0,0,0.5-0.8,0.5-1.6c0-1.6-1.8-1.7-2.2-1.7c-2.5,0-9,0-9,0
	c-0.4,0-0.7-0.2-0.8-0.4c-0.2-0.3-0.2-0.6-0.1-0.9c1-2.8,1.5-7.2,0.6-8.7C19.3,4.5,19.2,4,18.2,4c-0.1,0-0.5,0.1-0.8,0.9
	c-3.3,8-8.3,12.6-12.4,13c-0.4,0.8-1,2.5-1,5.5C4,26.6,5,28.9,5.4,29.7z"/>
</svg>
