<?xml version="1.0" encoding="utf-8"?>
<!-- Generator: Adobe Illustrator 21.0.0, SVG Export Plug-In . SVG Version: 6.00 Build 0)  -->
<svg version="1.1" id="Layer_1" xmlns="http://www.w3.org/2000/svg" xmlns:xlink="http://www.w3.org/1999/xlink" x="0px" y="0px"
	 viewBox="0 0 36 36" style="enable-background:new 0 0 36 36;" xml:space="preserve">
<style type="text/css">
	.st0{fill:#008ED6;}
</style>
<path class="st0" d="M32,26H19v3h5c0.6,0,1,0.4,1,1c0,0.6-0.4,1-1,1H12c-0.6,0-1-0.4-1-1c0-0.6,0.4-1,1-1h5v-3H4c-1.1,0-2-0.9-2-2V7
	c0-1.1,0.9-2,2-2h28c1.1,0,2,0.9,2,2v17C34,25.1,33.1,26,32,26z M32,7H4v17h28V7z"/>
</svg>
