<?xml version="1.0" encoding="utf-8"?>
<!-- Generator: Adobe Illustrator 21.0.0, SVG Export Plug-In . SVG Version: 6.00 Build 0)  -->
<svg version="1.1" id="Layer_1" xmlns="http://www.w3.org/2000/svg" xmlns:xlink="http://www.w3.org/1999/xlink" x="0px" y="0px"
	 viewBox="0 0 36 36" style="enable-background:new 0 0 36 36;" xml:space="preserve">
<style type="text/css">
	.st0{fill:#008ED6;}
</style>
<path class="st0" d="M24,34H12c-1.7,0-3-1.3-3-3V5c0-1.7,1.3-3,3-3h12c1.7,0,3,1.3,3,3v26C27,32.7,25.7,34,24,34z M25,5
	c0-0.6-0.4-1-1-1H12c-0.6,0-1,0.4-1,1v26c0,0.6,0.4,1,1,1h12c0.6,0,1-0.4,1-1V5z M20,7h-4c-0.6,0-1-0.4-1-1c0-0.6,0.4-1,1-1h4
	c0.6,0,1,0.4,1,1C21,6.6,20.6,7,20,7z M18,27c1.1,0,2,0.9,2,2c0,1.1-0.9,2-2,2c-1.1,0-2-0.9-2-2C16,27.9,16.9,27,18,27z"/>
</svg>
