<svg 
 xmlns="http://www.w3.org/2000/svg"
 xmlns:xlink="http://www.w3.org/1999/xlink"
 width="24px" height="32px">
<path fill-rule="evenodd"  fill="rgb(0, 142, 214)"
 d="M14.010,31.191 C13.993,31.211 13.297,31.988 12.435,31.988 C12.432,31.988 12.361,31.988 12.359,31.988 C11.496,31.988 10.796,31.211 10.780,31.191 C6.449,26.210 0.010,19.123 0.010,12.193 C0.010,5.575 5.566,-0.012 12.125,-0.012 C19.677,-0.012 24.010,5.575 24.010,12.193 C24.010,18.814 18.075,26.518 14.010,31.191 ZM12.125,1.988 C6.642,1.988 2.010,6.661 2.010,12.193 C2.010,18.087 7.633,24.538 11.739,29.248 L12.263,29.849 C12.299,29.884 12.350,29.924 12.396,29.956 C12.441,29.924 12.491,29.884 12.527,29.849 C18.820,22.608 22.010,16.668 22.010,12.193 C22.010,7.113 18.954,1.988 12.125,1.988 ZM12.046,18.044 C8.732,18.044 6.046,15.357 6.046,12.044 C6.046,8.730 8.732,6.044 12.046,6.044 C15.359,6.044 18.046,8.730 18.046,12.044 C18.046,15.357 15.359,18.044 12.046,18.044 ZM12.000,8.000 C9.794,8.000 8.000,9.794 8.000,12.000 C8.000,14.206 9.840,16.044 12.046,16.044 C14.252,16.044 16.000,14.206 16.000,12.000 C16.000,9.794 14.206,8.000 12.000,8.000 Z"/>
</svg>