<?xml version="1.0" encoding="utf-8"?>
<!-- Generator: Adobe Illustrator 21.0.0, SVG Export Plug-In . SVG Version: 6.00 Build 0)  -->
<svg version="1.1" id="Layer_1" xmlns="http://www.w3.org/2000/svg" xmlns:xlink="http://www.w3.org/1999/xlink" x="0px" y="0px"
	 viewBox="0 0 36 36" style="enable-background:new 0 0 36 36;" xml:space="preserve">
<style type="text/css">
	.st0{fill:#008ED6;}
</style>
<path class="st0" d="M32,21.1l-2.6,0.6c-0.2,0.6-0.4,1.2-0.7,1.7l1.4,2.3c0.5,0.8,0.8,2,0,2.8L28.7,30c-0.8,0.8-2.1,0.6-2.9,0.1
	l-2.3-1.4c-0.6,0.3-1.2,0.6-1.8,0.8L21.1,32c-0.2,1-1,2-2.1,2h-2c-1.1,0-1.8-1-2-2l-0.6-2.6c-0.7-0.2-1.3-0.5-2-0.8l-2.3,1.5
	C9.3,30.6,8,30.8,7.2,30l-1.4-1.4c-0.8-0.8-0.5-2,0-2.8l1.5-2.4c-0.3-0.5-0.5-1-0.7-1.6L4,21.1c-1-0.2-2-0.9-2-2v-2
	C2,16,3,15.1,4,15l2.6-0.6c0.2-0.6,0.4-1.2,0.7-1.7l-1.5-2.4c-0.5-0.8-0.8-2,0-2.8L7.2,6C8,5.2,9.3,5.4,10.1,5.9l2.3,1.5
	c0.6-0.3,1.3-0.6,1.9-0.8L15,4c0.2-1,0.9-2,2-2h2c1.1,0,1.9,1,2.1,2l0.6,2.6c0.6,0.2,1.2,0.5,1.8,0.8l2.3-1.4
	c0.8-0.6,2.1-0.7,2.9,0.1l1.4,1.4c0.8,0.8,0.5,2,0,2.8l-1.4,2.3c0.3,0.6,0.6,1.2,0.8,1.8L32,15c1,0.2,2,1,2,2.1v2
	C34,20.2,33,20.9,32,21.1z M31.6,16.9l-3.7-0.8L27.5,15c-0.2-0.5-0.4-1-0.6-1.5l-0.5-1l2-3.3c0.1-0.2,0.2-0.3,0.2-0.4l-1.3-1.3
	c-0.1,0-0.3,0.1-0.4,0.1l-3.2,2.1l-1-0.5c-0.5-0.3-1-0.5-1.5-0.6L20,8.1l-0.8-3.8C19.1,4.2,19,4,19,4h-1.9c-0.1,0.1-0.1,0.3-0.2,0.5
	L16,8.1L15,8.5c-0.5,0.2-1.1,0.4-1.6,0.7l-1,0.5L9,7.6c-0.1,0-0.2-0.1-0.3-0.1L7.3,8.7c0,0.1,0.1,0.3,0.2,0.5l2,3.4l-0.5,1
	c-0.3,0.5-0.4,1-0.6,1.4l-0.3,1.1l-3.8,0.8C4.2,17,4,17.1,4,17.1c0,0,0,0,0,0v1.9c0.1,0.1,0.3,0.1,0.5,0.2l3.7,0.9l0.3,1.1
	C8.6,21.5,8.8,22,9,22.4l0.5,1l-2,3.4c-0.1,0.2-0.2,0.3-0.2,0.4l1.3,1.3c0.1,0,0.3-0.1,0.4-0.1l3.3-2.1l1,0.5
	c0.5,0.3,1.1,0.5,1.6,0.7l1.1,0.3l0.9,3.7c0,0.2,0.1,0.4,0.2,0.4H19c0.1-0.1,0.2-0.2,0.2-0.4l0.8-3.7l1.1-0.4c0.5-0.2,1-0.4,1.5-0.6
	l1-0.5l3.3,2.1c0.1,0,0.2,0.1,0.3,0.1l1.3-1.3c0-0.1-0.1-0.3-0.2-0.5l-2-3.3l0.5-1c0.2-0.5,0.4-1,0.6-1.4l0.3-1.1l3.7-0.9
	c0.2,0,0.4-0.1,0.4-0.2l0-1.8C32,17.1,31.8,17,31.6,16.9z M18,24c-3.3,0-6-2.7-6-6c0-3.3,2.7-6,6-6c3.3,0,6,2.7,6,6
	C24,21.3,21.3,24,18,24z M18,14c-2.2,0-4,1.8-4,4c0,2.2,1.8,4,4,4s4-1.8,4-4C22,15.8,20.2,14,18,14z"/>
</svg>
