<svg 
 xmlns="http://www.w3.org/2000/svg"
 xmlns:xlink="http://www.w3.org/1999/xlink"
 width="17px" height="16px">
<path fill-rule="evenodd"  fill="rgb(0, 142, 214)"
 d="M15.323,4.699 C14.750,5.402 13.865,5.761 12.701,5.777 C12.057,7.661 10.447,9.047 8.509,9.255 L8.509,12.764 L10.054,12.764 C10.331,12.764 10.554,12.988 10.554,13.264 C10.554,13.540 10.331,13.764 10.054,13.764 L6.012,13.764 C5.736,13.764 5.512,13.540 5.512,13.264 C5.512,12.988 5.736,12.764 6.012,12.764 L7.509,12.764 L7.509,9.254 C5.572,9.042 3.966,7.655 3.324,5.771 C2.201,5.739 1.339,5.386 0.779,4.699 C-0.194,3.506 0.141,1.754 0.156,1.681 C0.203,1.449 0.408,1.282 0.646,1.282 L3.017,1.282 L3.017,0.783 C3.017,0.507 3.241,0.283 3.517,0.283 L12.510,0.283 C12.786,0.283 13.010,0.507 13.010,0.783 L13.010,1.282 L15.457,1.282 C15.694,1.282 15.899,1.449 15.947,1.681 C15.962,1.754 16.297,3.506 15.323,4.699 ZM1.093,2.282 C1.070,2.737 1.115,3.532 1.558,4.071 C1.884,4.469 2.405,4.691 3.087,4.755 C3.051,4.497 3.017,4.239 3.017,3.970 L3.017,2.282 L1.093,2.282 ZM12.010,1.283 L4.017,1.283 L4.017,3.970 C4.017,6.362 5.810,8.308 8.014,8.308 C10.217,8.308 12.010,6.362 12.010,3.970 L12.010,1.283 ZM13.010,2.282 L13.010,3.970 C13.010,4.241 12.976,4.501 12.939,4.761 C13.660,4.707 14.207,4.483 14.545,4.071 C14.988,3.532 15.032,2.737 15.010,2.282 L13.010,2.282 ZM4.518,14.279 L11.548,14.279 C11.825,14.279 12.048,14.503 12.048,14.779 C12.048,15.055 11.825,15.279 11.548,15.279 L4.518,15.279 C4.242,15.279 4.018,15.055 4.018,14.779 C4.018,14.503 4.242,14.279 4.518,14.279 Z"/>
</svg>