<svg 
 xmlns="http://www.w3.org/2000/svg"
 xmlns:xlink="http://www.w3.org/1999/xlink"
 width="11px" height="17px">
<path fill-rule="evenodd"  fill="rgb(0, 142, 214)"
 d="M6.560,1.339 L6.563,1.339 M6.560,1.339 L5.432,7.267 L9.519,7.280 L3.955,15.317 L5.084,8.795 L0.997,8.781 L6.560,1.339 M6.561,0.339 C6.534,0.339 6.507,0.340 6.480,0.342 C6.304,0.356 6.187,0.415 6.048,0.509 C5.971,0.560 5.900,0.622 5.839,0.695 C5.820,0.716 5.803,0.739 5.787,0.762 L0.184,8.178 C-0.037,8.481 -0.070,8.882 0.100,9.216 C0.270,9.550 0.613,9.762 0.989,9.765 L3.876,9.787 L2.968,15.133 C2.882,15.592 3.127,16.051 3.558,16.235 C3.687,16.290 3.822,16.316 3.955,16.316 C4.269,16.316 4.527,16.170 4.721,15.904 L10.332,7.868 C10.553,7.565 10.585,7.164 10.416,6.830 C10.246,6.495 9.903,6.284 9.526,6.280 L6.640,6.276 L7.538,1.574 C7.556,1.499 7.566,1.420 7.566,1.339 C7.566,0.798 7.135,0.357 6.597,0.340 C6.584,0.339 6.572,0.339 6.561,0.339 L6.561,0.339 Z"/>
</svg>