<svg 
 xmlns="http://www.w3.org/2000/svg"
 xmlns:xlink="http://www.w3.org/1999/xlink"
 width="33px" height="32px">
<path fill-rule="evenodd"  fill="rgb(0, 142, 214)"
 d="M20.008,31.984 C10.919,31.984 10.849,31.608 9.723,30.760 C9.126,30.310 8.000,30.000 3.885,29.732 C3.587,29.712 3.303,29.598 3.112,29.367 C3.025,29.260 0.969,26.262 0.969,21.459 C0.969,16.727 2.440,14.569 2.503,14.469 C2.686,14.177 3.006,13.999 3.351,13.999 C6.729,13.999 11.413,9.686 14.562,2.158 C15.106,0.856 15.219,-0.000 17.219,-0.000 C18.356,-0.000 19.632,0.814 20.261,1.859 C21.552,3.994 20.897,8.580 20.290,11.030 C22.352,11.014 26.086,10.985 27.862,10.985 C30.334,10.985 31.968,12.459 32.018,14.613 C32.035,15.324 31.941,16.233 31.735,16.702 C32.279,17.244 32.981,18.063 33.011,19.116 C33.050,20.476 32.159,21.512 31.591,22.105 C31.720,22.501 31.982,23.025 31.957,23.652 C31.894,25.194 30.704,26.188 29.962,26.707 C30.023,27.129 30.071,27.925 29.936,28.540 C29.401,30.997 25.799,31.984 20.008,31.984 ZM4.416,27.703 C8.000,28.000 9.916,28.401 10.926,29.162 C11.709,29.751 11.588,29.984 20.008,29.984 C22.576,29.984 27.598,29.877 27.983,28.114 C28.136,27.409 27.393,26.716 27.390,26.711 C27.187,26.210 27.414,25.622 27.909,25.405 C27.917,25.402 29.913,24.686 29.959,23.570 C29.988,22.856 29.499,22.428 29.487,22.410 C29.196,21.958 29.302,21.338 29.744,21.030 C29.749,21.026 31.043,20.242 31.011,19.173 C30.987,18.324 29.868,17.727 29.834,17.707 C29.584,17.564 29.402,17.317 29.345,17.033 C29.289,16.751 29.352,16.454 29.528,16.225 C29.528,16.225 30.036,15.416 30.018,14.659 C29.981,13.036 28.236,12.985 27.862,12.985 C25.340,12.985 18.861,13.011 18.861,13.011 C18.511,13.012 18.210,12.848 18.022,12.568 C17.834,12.289 17.820,11.942 17.930,11.624 C18.907,8.810 19.453,4.396 18.547,2.889 C18.280,2.444 18.219,2.000 17.219,2.000 C17.080,2.000 16.750,2.109 16.406,2.929 C13.063,10.924 8.072,15.548 3.984,15.966 C3.632,16.770 2.969,18.436 2.969,21.459 C2.969,24.544 3.946,26.931 4.416,27.703 Z"/>
</svg>