<?xml version="1.0" encoding="utf-8"?>
<!-- Generator: Adobe Illustrator 21.0.0, SVG Export Plug-In . SVG Version: 6.00 Build 0)  -->
<svg version="1.1" id="Layer_1" xmlns="http://www.w3.org/2000/svg" xmlns:xlink="http://www.w3.org/1999/xlink" x="0px" y="0px"
	 viewBox="0 0 78 22.5" style="enable-background:new 0 0 78 22.5;" xml:space="preserve">
<style type="text/css">
	.st0{fill:#FFFFFF;}
</style>
<g>
	<path class="st0" d="M12.9,18.8v2.4H1.2V1.8h2.7v17.1h9V18.8z"/>
	<path class="st0" d="M23.9,21.6c-1.3,0-2.4-0.2-3.3-0.6s-1.7-0.9-2.3-1.6c-0.6-0.7-1-1.5-1.3-2.4s-0.4-1.9-0.4-3V1.8h2.7v11.9
		c0,1.9,0.4,3.4,1.3,4.2c0.9,0.9,2,1.3,3.4,1.3c0.7,0,1.3-0.1,1.9-0.3c0.6-0.2,1.1-0.5,1.5-1c0.4-0.4,0.7-1,1-1.7
		c0.2-0.7,0.3-1.5,0.3-2.5V1.8h2.7V14c0,1.1-0.1,2.1-0.4,3s-0.7,1.7-1.3,2.4c-0.6,0.7-1.4,1.2-2.3,1.6
		C26.3,21.4,25.2,21.6,23.9,21.6z"/>
	<path class="st0" d="M44.3,21.6c-1.4,0-2.6-0.2-3.7-0.7c-1.1-0.4-2.1-1.1-2.9-2c-0.8-0.9-1.4-1.9-1.9-3.2c-0.4-1.3-0.7-2.7-0.7-4.3
		s0.2-3.1,0.7-4.3c0.5-1.3,1.2-2.3,2-3.2s1.8-1.5,2.9-2c1.1-0.4,2.3-0.7,3.6-0.7c0.8,0,1.5,0.1,2.2,0.2c0.6,0.1,1.2,0.2,1.7,0.4
		s0.9,0.3,1.2,0.4s0.5,0.3,0.6,0.3l-0.8,2.2c-0.2-0.1-0.4-0.2-0.7-0.4S47.8,4,47.4,3.9c-0.4-0.1-0.8-0.2-1.3-0.3s-1-0.1-1.4-0.1
		c-1,0-2,0.2-2.8,0.5c-0.8,0.4-1.5,0.9-2.1,1.5c-0.6,0.7-1,1.5-1.3,2.5S38,10,38,11.2s0.1,2.2,0.4,3.2c0.3,1,0.7,1.8,1.2,2.5
		c0.5,0.7,1.2,1.2,2,1.6s1.8,0.6,2.8,0.6c1.3,0,2.3-0.1,3.1-0.4s1.4-0.5,1.8-0.7l0.7,2.2c-0.1,0.1-0.4,0.2-0.7,0.3
		c-0.3,0.1-0.8,0.3-1.3,0.4s-1.1,0.2-1.8,0.3S45.1,21.6,44.3,21.6z"/>
	<path class="st0" d="M53.3,1.8H56v19.4h-2.7V1.8z"/>
	<path class="st0" d="M76.8,11.5c0,1.7-0.3,3.1-0.8,4.4c-0.5,1.2-1.3,2.3-2.2,3.1c-1,0.8-2.1,1.4-3.4,1.8s-2.8,0.6-4.4,0.6
		c-0.8,0-1.6,0-2.6-0.1c-0.9-0.1-1.8-0.2-2.6-0.4V2c0.8-0.2,1.6-0.3,2.6-0.4c0.9-0.1,1.8-0.1,2.6-0.1c1.6,0,3,0.2,4.4,0.6
		c1.3,0.4,2.5,1,3.4,1.8c1,0.8,1.7,1.8,2.2,3.1S76.8,9.8,76.8,11.5z M66.2,19c2.6,0,4.5-0.7,5.8-2s1.9-3.2,1.9-5.5
		c0-2.4-0.6-4.2-1.9-5.5s-3.2-2-5.8-2c-0.8,0-1.4,0-1.8,0c-0.4,0-0.7,0-0.9,0v14.8c0.2,0,0.5,0,0.9,0.1S65.4,19,66.2,19z"/>
</g>
</svg>
