<svg 
 xmlns="http://www.w3.org/2000/svg"
 xmlns:xlink="http://www.w3.org/1999/xlink"
 width="32px" height="26px">
<path fill-rule="evenodd"  fill="rgb(0, 142, 214)"
 d="M30.000,20.993 L17.000,20.993 L17.000,24.000 L22.000,24.000 C22.552,24.000 23.000,24.447 23.000,25.000 C23.000,25.552 22.552,26.000 22.000,26.000 L10.000,26.000 C9.448,26.000 9.000,25.552 9.000,25.000 C9.000,24.447 9.448,24.000 10.000,24.000 L15.000,24.000 L15.000,20.993 L2.000,20.993 C0.900,20.993 -0.000,20.093 -0.000,18.994 L-0.000,1.988 C-0.000,0.888 0.900,-0.012 2.000,-0.012 L30.000,-0.012 C31.100,-0.012 32.000,0.888 32.000,1.988 L32.000,18.994 C32.000,20.093 31.100,20.993 30.000,20.993 ZM30.000,1.988 L2.000,1.988 L2.000,18.994 L30.000,18.994 L30.000,1.988 Z"/>
</svg>