<svg 
 xmlns="http://www.w3.org/2000/svg"
 xmlns:xlink="http://www.w3.org/1999/xlink"
 width="18px" height="32px">
<path fill-rule="evenodd"  fill="rgb(0, 142, 214)"
 d="M15.003,32.000 L2.994,32.000 C1.337,32.000 -0.006,30.657 -0.006,29.000 L-0.006,3.000 C-0.006,1.343 1.337,-0.000 2.994,-0.000 L15.003,-0.000 C16.660,-0.000 18.003,1.343 18.003,3.000 L18.003,29.000 C18.003,30.657 16.660,32.000 15.003,32.000 ZM16.003,3.000 C16.003,2.448 15.555,2.000 15.003,2.000 L2.994,2.000 C2.442,2.000 1.994,2.448 1.994,3.000 L1.994,29.000 C1.994,29.552 2.442,30.000 2.994,30.000 L15.003,30.000 C15.555,30.000 16.003,29.552 16.003,29.000 L16.003,3.000 ZM11.000,5.000 L7.000,5.000 C6.448,5.000 6.000,4.552 6.000,4.000 C6.000,3.447 6.448,3.000 7.000,3.000 L11.000,3.000 C11.552,3.000 12.000,3.447 12.000,4.000 C12.000,4.552 11.552,5.000 11.000,5.000 ZM9.000,25.005 C10.102,25.005 10.995,25.899 10.995,26.999 C10.995,28.101 10.102,28.995 9.000,28.995 C7.898,28.995 7.005,28.101 7.005,26.999 C7.005,25.899 7.898,25.005 9.000,25.005 Z"/>
</svg>