<svg 
 xmlns="http://www.w3.org/2000/svg"
 xmlns:xlink="http://www.w3.org/1999/xlink"
 width="32px" height="32px">
<path fill-rule="evenodd"  fill="rgb(0, 142, 214)"
 d="M30.000,19.080 L27.401,19.729 C27.207,20.323 26.965,20.894 26.685,21.443 L28.075,23.759 C28.594,24.588 28.855,25.806 28.075,26.588 L26.660,28.002 C25.880,28.783 24.561,28.642 23.766,28.090 L21.510,26.653 C20.933,26.952 20.330,27.208 19.702,27.411 L19.125,30.015 C18.953,30.969 18.120,32.000 17.016,32.000 L15.015,32.000 C13.911,32.000 13.234,30.953 13.016,30.000 L12.375,27.440 C11.693,27.224 11.040,26.946 10.416,26.617 L8.103,28.090 C7.308,28.642 5.989,28.783 5.209,28.002 L3.794,26.588 C3.014,25.806 3.275,24.588 3.794,23.759 L5.257,21.322 C5.002,20.809 4.778,20.280 4.599,19.729 L2.000,19.080 C1.047,18.861 -0.000,18.184 -0.000,17.080 L-0.000,15.080 C-0.000,13.975 1.031,13.142 1.984,12.971 L4.550,12.401 C4.738,11.804 4.981,11.233 5.255,10.681 L3.794,8.246 C3.275,7.418 3.013,6.199 3.794,5.418 L5.208,4.004 C5.989,3.223 7.308,3.363 8.103,3.915 L10.411,5.385 C11.030,5.058 11.681,4.782 12.358,4.566 L13.000,2.000 C13.219,1.047 13.895,-0.000 15.000,-0.000 L17.000,-0.000 C18.104,-0.000 18.937,1.031 19.109,1.984 L19.685,4.582 C20.320,4.787 20.931,5.046 21.515,5.349 L23.766,3.915 C24.561,3.363 25.880,3.223 26.660,4.004 L28.075,5.418 C28.855,6.199 28.594,7.418 28.075,8.246 L26.686,10.560 C26.987,11.149 27.249,11.761 27.449,12.401 L30.016,12.971 C30.969,13.142 32.000,13.975 32.000,15.080 L32.000,17.080 C32.000,18.184 30.953,18.861 30.000,19.080 ZM29.582,14.923 L25.886,14.102 L25.540,12.998 C25.386,12.502 25.178,12.003 24.905,11.469 L24.400,10.482 L26.380,7.185 C26.489,7.010 26.544,6.839 26.561,6.735 L25.249,5.459 C25.119,5.459 24.975,5.511 24.840,5.602 L21.616,7.656 L20.593,7.124 C20.094,6.865 19.581,6.650 19.070,6.485 L17.981,6.133 L17.142,2.339 C17.115,2.195 16.986,2.020 17.000,2.000 L15.141,2.000 C15.078,2.087 14.994,2.254 14.940,2.485 L14.028,6.133 L12.965,6.472 C12.416,6.647 11.871,6.876 11.343,7.154 L10.316,7.696 L6.962,5.558 C6.894,5.511 6.750,5.459 6.622,5.418 L5.308,6.733 C5.325,6.838 5.383,7.016 5.509,7.217 L7.533,10.590 L7.046,11.570 C6.792,12.084 6.600,12.551 6.458,13.001 L6.112,14.103 L2.339,14.939 C2.202,14.963 2.038,15.081 2.004,15.081 C2.002,15.081 2.001,15.080 2.000,15.080 L2.000,16.939 C2.087,17.001 2.254,17.087 2.485,17.139 L6.157,18.057 L6.500,19.109 C6.640,19.539 6.820,19.972 7.048,20.433 L7.535,21.413 L5.489,24.821 C5.380,24.996 5.326,25.167 5.308,25.270 L6.620,26.546 C6.750,26.546 6.894,26.495 7.029,26.404 L10.321,24.305 L11.349,24.848 C11.882,25.130 12.430,25.360 12.979,25.533 L14.044,25.871 L14.965,29.552 C15.011,29.755 15.095,29.915 15.156,30.000 L16.956,30.000 C17.028,29.942 17.135,29.782 17.173,29.583 L17.997,25.860 L19.087,25.507 C19.591,25.344 20.097,25.133 20.590,24.877 L21.613,24.347 L24.905,26.447 C24.975,26.495 25.119,26.546 25.246,26.587 L26.561,25.273 C26.544,25.167 26.485,24.989 26.360,24.789 L24.401,21.522 L24.903,20.536 C25.144,20.061 25.346,19.581 25.501,19.107 L25.845,18.056 L29.553,17.131 C29.756,17.084 29.916,17.000 30.001,16.939 L30.017,15.164 C29.979,15.094 29.806,14.964 29.582,14.923 ZM16.013,22.009 C12.693,22.009 9.990,19.313 9.990,15.999 C9.990,12.686 12.693,9.990 16.013,9.990 C19.334,9.990 22.037,12.686 22.037,15.999 C22.037,19.313 19.334,22.009 16.013,22.009 ZM16.000,12.000 C13.794,12.000 12.000,13.794 12.000,15.999 C12.000,18.205 13.794,19.999 16.000,19.999 C18.206,19.999 20.000,18.205 20.000,15.999 C20.000,13.794 18.206,12.000 16.000,12.000 Z"/>
</svg>