<svg 
 xmlns="http://www.w3.org/2000/svg"
 xmlns:xlink="http://www.w3.org/1999/xlink"
 width="17px" height="16px">
<path fill-rule="evenodd"  fill="rgb(0, 142, 214)"
 d="M12.217,15.080 C12.135,15.130 12.045,15.154 11.955,15.154 C11.787,15.154 11.624,15.069 11.529,14.916 C11.384,14.681 11.457,14.373 11.693,14.228 C12.567,13.690 13.281,12.979 13.826,12.161 L13.342,11.882 C13.103,11.744 13.021,11.438 13.159,11.199 C13.297,10.960 13.604,10.878 13.842,11.016 L14.324,11.294 C14.694,10.515 14.925,9.668 14.989,8.781 L14.453,8.781 C14.176,8.781 13.953,8.557 13.953,8.281 C13.953,8.005 14.176,7.781 14.453,7.781 L14.971,7.781 C14.907,6.869 14.658,6.013 14.278,5.232 L13.843,5.484 C13.764,5.529 13.678,5.550 13.593,5.550 C13.421,5.550 13.253,5.461 13.160,5.300 C13.022,5.061 13.104,4.756 13.343,4.617 L13.779,4.366 C13.286,3.641 12.655,3.022 11.932,2.528 L11.684,2.958 C11.591,3.119 11.423,3.208 11.250,3.208 C11.165,3.208 11.079,3.187 11.001,3.142 C10.761,3.003 10.679,2.697 10.818,2.458 L11.068,2.025 C10.289,1.644 9.432,1.395 8.520,1.331 L8.520,1.926 C8.520,2.203 8.297,2.426 8.020,2.426 C7.744,2.426 7.520,2.203 7.520,1.926 L7.520,1.333 C6.629,1.399 5.789,1.637 5.024,2.006 L5.285,2.458 C5.423,2.697 5.341,3.003 5.102,3.142 C5.024,3.187 4.938,3.208 4.853,3.208 C4.680,3.208 4.512,3.119 4.419,2.958 L4.158,2.506 C3.427,2.997 2.802,3.629 2.303,4.353 L2.760,4.617 C3.000,4.756 3.082,5.061 2.944,5.300 C2.851,5.461 2.683,5.550 2.510,5.550 C2.425,5.550 2.339,5.529 2.260,5.484 L1.796,5.215 C1.411,5.994 1.160,6.852 1.093,7.765 L1.616,7.765 C1.892,7.765 2.116,7.989 2.116,8.265 C2.116,8.542 1.892,8.765 1.616,8.765 L1.072,8.765 C1.135,9.664 1.372,10.523 1.749,11.311 L2.260,11.016 C2.499,10.878 2.805,10.959 2.944,11.199 C3.082,11.438 3.000,11.744 2.760,11.882 L2.248,12.178 C2.783,12.973 3.475,13.668 4.321,14.198 C4.555,14.345 4.626,14.653 4.479,14.887 C4.332,15.122 4.023,15.193 3.790,15.045 C1.443,13.573 0.041,11.041 0.041,8.273 C0.041,3.867 3.625,0.283 8.031,0.283 C12.437,0.283 16.021,3.867 16.021,8.273 C16.021,11.068 14.599,13.612 12.217,15.080 ZM8.016,7.284 C8.192,7.284 8.350,7.342 8.494,7.423 L11.220,5.848 C11.460,5.710 11.765,5.792 11.903,6.031 C12.042,6.270 11.960,6.576 11.720,6.714 L9.012,8.278 C9.012,8.279 9.013,8.280 9.013,8.281 C9.013,8.831 8.567,9.278 8.016,9.278 C7.464,9.278 7.018,8.831 7.018,8.281 C7.018,7.730 7.464,7.284 8.016,7.284 Z"/>
</svg>